<?xml version="1.0" encoding="UTF-8" standalone="no"?>
<!-- Created with Inkscape (http://www.inkscape.org/) -->

<svg
   width="210mm"
   height="297mm"
   viewBox="0 0 793.70081 1122.5197"
   version="1.1"
   id="svg1"
   xml:space="preserve"
   inkscape:version="1.4.2 (f4327f4, 2025-05-13)"
   sodipodi:docname="pikachu.svg"
   xmlns:inkscape="http://www.inkscape.org/namespaces/inkscape"
   xmlns:sodipodi="http://sodipodi.sourceforge.net/DTD/sodipodi-0.dtd"
   xmlns="http://www.w3.org/2000/svg"
   xmlns:svg="http://www.w3.org/2000/svg"><sodipodi:namedview
     id="namedview1"
     pagecolor="#ffffff"
     bordercolor="#cccccc"
     borderopacity="1"
     inkscape:showpageshadow="0"
     inkscape:pageopacity="1"
     inkscape:pagecheckerboard="0"
     inkscape:deskcolor="#d1d1d1"
     inkscape:document-units="mm"
     inkscape:zoom="0.35355339"
     inkscape:cx="342.23968"
     inkscape:cy="391.73715"
     inkscape:window-width="1366"
     inkscape:window-height="705"
     inkscape:window-x="-8"
     inkscape:window-y="-8"
     inkscape:window-maximized="1"
     inkscape:current-layer="g133" /><defs
     id="defs1"><inkscape:path-effect
       effect="fillet_chamfer"
       id="path-effect13"
       is_visible="true"
       lpeversion="1"
       nodesatellites_param="F,0,0,1,0,124.73077,0,1 @ F,0,0,1,0,109.28451,0,1 @ F,0,0,1,0,188.60805,0,1 @ F,0,0,1,0,57.82972,0,1"
       radius="28.914859"
       unit="mm"
       method="auto"
       mode="F"
       chamfer_steps="1"
       flexible="false"
       use_knot_distance="true"
       apply_no_radius="true"
       apply_with_radius="true"
       only_selected="false"
       hide_knots="false" /><inkscape:path-effect
       effect="fillet_chamfer"
       id="path-effect12"
       is_visible="true"
       lpeversion="1"
       nodesatellites_param="F,0,0,1,0,35.107442,0,1 @ F,0,0,1,0,35.107442,0,1 @ F,0,0,1,0,35.107442,0,1 @ F,0,0,1,0,35.107442,0,1"
       radius="0"
       unit="px"
       method="auto"
       mode="F"
       chamfer_steps="1"
       flexible="false"
       use_knot_distance="true"
       apply_no_radius="true"
       apply_with_radius="true"
       only_selected="false"
       hide_knots="false" /><inkscape:path-effect
       effect="powerstroke"
       message=""
       id="path-effect3"
       is_visible="true"
       lpeversion="1.3"
       scale_width="1"
       interpolator_type="CubicBezierJohan"
       interpolator_beta="0.2"
       start_linecap_type="zerowidth"
       end_linecap_type="zerowidth"
       offset_points="0,4.9921382"
       linejoin_type="extrp_arc"
       miter_limit="4"
       not_jump="false"
       sort_points="true" /><inkscape:path-effect
       effect="fill_between_many"
       method="bsplinespiro"
       autoreverse="false"
       close="false"
       join="false"
       linkedpaths="#path3,0,1"
       id="path-effect4" /></defs><g
     inkscape:label="Camada 1"
     inkscape:groupmode="layer"
     id="layer1"><g
       id="g133"
       transform="matrix(-1,0.01388917,0,1,1435.8419,346.89902)"><g
         id="g132"><g
           id="g186"
           transform="translate(474.77628,-1.4287724)"><g
             id="g185" /></g></g><g
         id="g191"><g
           id="g190"><g
             id="g189"><g
               id="g188"><g
                 id="g178"
                 transform="matrix(1.3287967,0,0,1.3287967,323.86737,100.66343)"><g
                   id="g177"><g
                     id="g176"><g
                       id="g149"><g
                         id="g148"><g
                           id="g146"><g
                             id="g145"><g
                               id="g144"
                               transform="translate(862.67029,-24.709697)"><g
                                 id="g140"><path
                                   id="rect138"
                                   style="fill:#fee71f;stroke:#000000;stroke-width:1.73487;stroke-linejoin:bevel;stroke-dasharray:none;stroke-dashoffset:3.77953;stroke-opacity:1"
                                   transform="matrix(-0.97520036,-0.22132386,-0.23340827,0.97237882,0,0)"
                                   d="M 403.88353,90.037339 C 465.40565,76.577737 563.4002,58.757202 589.96317,66.870198 582.62325,96.79944 545.45812,174.71345 538.94562,181.70109 l -113.44054,3.87039 z"
                                   sodipodi:nodetypes="ccccc" /><path
                                   id="rect139"
                                   style="fill:#fee71f;stroke:#000000;stroke-width:1.73488;stroke-linejoin:bevel;stroke-dashoffset:3.77953"
                                   transform="matrix(-0.99990356,0.01388783,0,1,0,0)"
                                   d="M 423.30892,124.62988 C 433.90056,84.746422 417.90707,76.856166 415.02983,-7.3701178 l 103.50999,153.1927978 -49.35147,21.25 c -12.48589,-28.37513 -37.70181,-32.8325 -45.87943,-42.4428 z"
                                   sodipodi:nodetypes="ccccc" /></g><path
                                 id="rect141"
                                 style="fill:#fee71f;stroke:#000000;stroke-width:1.73488;stroke-linejoin:bevel;stroke-dashoffset:3.77953"
                                 transform="matrix(-0.99990356,0.01388783,0,1,0,0)"
                                 d="m 412.22141,165.39987 15.09574,-9.375 c 11.92795,15.01854 39.17622,46.31337 35.64405,44.90712 l -29.87813,13.25825 c -11.9671,-16.51409 -15.0345,-32.58324 -20.86166,-48.79037 z"
                                 sodipodi:nodetypes="ccccc" /><path
                                 id="rect142"
                                 style="fill:#fee71f;stroke:#000000;stroke-width:1.89475;stroke-linejoin:bevel;stroke-dashoffset:3.77953"
                                 transform="matrix(-0.86897125,-0.49486258,-0.50086382,0.8655261,0,0)"
                                 d="m 288.68446,352.26221 25.9758,-0.4446 c 5.13184,10.31084 5.0779,20.72541 4.58321,31.14879 l -32.40369,-3.34759 z"
                                 sodipodi:nodetypes="ccccc" /></g><path
                               id="rect144"
                               style="fill:#fee71f;stroke-width:2.22609;stroke-linejoin:bevel;stroke-dashoffset:3.77953"
                               transform="matrix(-0.715951,-0.69815053,-0.38656346,0.92226281,0,0)"
                               d="m -433.22917,-353.23127 21.58351,6.22518 17.39853,97.05495 c -12.4989,1.05713 -25.74279,0.60514 -39.06229,0 z"
                               sodipodi:nodetypes="ccccc" /></g><path
                             id="rect145"
                             style="fill:#fee71f;stroke-width:1.7348;stroke-linejoin:bevel;stroke-dashoffset:3.77953"
                             d="m 446.86756,-25.808658 -2.58521,-0.204898 -0.24081,2.588561 2.63951,0.758444 z"
                             sodipodi:nodetypes="ccccc" /></g><rect
                           style="fill:#fee71f;fill-opacity:1;stroke:none;stroke-width:1.40514;stroke-linejoin:bevel;stroke-dasharray:none;stroke-dashoffset:3.77953;stroke-opacity:1"
                           id="rect146"
                           width="0.51515216"
                           height="0.69571787"
                           x="196.72305"
                           y="-399.76791"
                           transform="matrix(0.39639479,-0.91808015,-0.92182386,-0.38760904,0,0)" /><rect
                           style="fill:#fee71f;fill-opacity:1;stroke:none;stroke-width:1.40514;stroke-linejoin:bevel;stroke-dasharray:none;stroke-dashoffset:3.77953;stroke-opacity:1"
                           id="rect147"
                           width="0.51010662"
                           height="0.70260262"
                           x="-404.73547"
                           y="-187.26094"
                           transform="matrix(-0.93111536,-0.3647248,-0.37404708,0.92740971,0,0)" /><rect
                           style="fill:#fee71f;fill-opacity:1;stroke:none;stroke-width:1.40517;stroke-linejoin:bevel;stroke-dasharray:none;stroke-dashoffset:3.77953;stroke-opacity:1"
                           id="rect148"
                           width="0.51170081"
                           height="0.7004419"
                           x="-440.04529"
                           y="-76.559517"
                           transform="matrix(-0.99355112,-0.11338503,-0.12675233,0.9919344,0,0)" /></g></g><path
                       id="rect149"
                       style="fill:#fee71f;stroke-width:1.47682;stroke-linejoin:bevel;stroke-dashoffset:3.77953"
                       d="m 401.36841,122.26287 -9.75397,24.10161 10.53584,4.14166 9.75396,-24.10161 z" /><rect
                       style="fill:#fee71f;fill-opacity:1;stroke:none;stroke-width:1.89344;stroke-linejoin:bevel;stroke-dasharray:none;stroke-dashoffset:3.77953;stroke-opacity:1"
                       id="rect150"
                       width="2.0900612"
                       height="1.0586799"
                       x="-423.05545"
                       y="9.2191811"
                       transform="matrix(-0.94432996,-0.32899988,-0.44861217,0.89372653,0,0)" /><path
                       id="path158"
                       style="fill:#fee71f;stroke-width:1.47682;stroke-linejoin:bevel;stroke-dashoffset:3.77953"
                       d="m 401.36841,122.26287 -9.75397,24.10161 10.53584,4.14166 9.75396,-24.10161 z" /><rect
                       style="fill:#fee71f;fill-opacity:1;stroke:none;stroke-width:1.89344;stroke-linejoin:bevel;stroke-dasharray:none;stroke-dashoffset:3.77953;stroke-opacity:1"
                       id="rect158"
                       width="2.0900612"
                       height="1.0586799"
                       x="-423.05545"
                       y="9.2191811"
                       transform="matrix(-0.94432996,-0.32899988,-0.44861217,0.89372653,0,0)" /></g></g><rect
                   style="fill:#fee71f;fill-opacity:1;stroke:none;stroke-width:1.73481;stroke-linejoin:bevel;stroke-dasharray:none;stroke-dashoffset:3.77953;stroke-opacity:1"
                   id="rect177"
                   width="3.9125037"
                   height="3.3494384"
                   x="-414.65912"
                   y="-119.76278"
                   transform="matrix(-0.83894672,-0.54421357,-0.54882238,0.83593899,0,0)" /></g><rect
                 style="fill:#fee71f;fill-opacity:1;stroke:none;stroke-width:2.3052;stroke-linejoin:bevel;stroke-dasharray:none;stroke-dashoffset:3.77953;stroke-opacity:1"
                 id="rect179"
                 width="12.075003"
                 height="12.415165"
                 x="-901.68921"
                 y="-286.11331"
                 transform="matrix(-0.79850883,-0.60198309,-0.60491785,0.79628789,0,0)" /><rect
                 style="fill:#fee71f;fill-opacity:1;stroke:none;stroke-width:2.30522;stroke-linejoin:bevel;stroke-dasharray:none;stroke-dashoffset:3.77953;stroke-opacity:1"
                 id="rect182"
                 width="17.993242"
                 height="32.590981"
                 x="-927.61414"
                 y="-223.05113"
                 transform="matrix(-0.85556925,-0.51768837,-0.52305183,0.85230088,0,0)" /><rect
                 style="fill:#fee71f;fill-opacity:1;stroke:none;stroke-width:2.65031;stroke-linejoin:bevel;stroke-dasharray:none;stroke-dashoffset:3.77953;stroke-opacity:1"
                 id="rect183"
                 width="1.764326"
                 height="2.7563279"
                 x="-148.1899"
                 y="931.25403"
                 transform="matrix(-0.45360619,0.89120224,0.894886,0.4462948,0,0)" /><path
                 id="rect25"
                 style="fill:#fee71f;stroke:#000000;stroke-width:3.78057;stroke-linejoin:bevel;stroke-dashoffset:3.77953"
                 d="m 1201.6257,228.09386 -276.2668,9.80204 c -142.91898,275.89902 -4.34984,268.64045 21.70483,275.2005 115.02437,-50.76145 234.78867,-2.42093 250.38927,-9.69175 136.9539,-145.47698 15.3851,-130.40864 4.1727,-275.31079 z"
                 sodipodi:nodetypes="ccccc" /><path
                 id="rect13"
                 style="fill:#fde71f;stroke:#000000;stroke-width:3.76165;stroke-linejoin:bevel;stroke-dasharray:none;stroke-dashoffset:3.77953"
                 d="m 1366.8667,-157.91774 3.6465,-11.66287 c -87.7626,-2.32902 -209.3349,116.167778 -214.0582,160.9194573 L 1191.9839,27.57 c 65.2574,-25.4553586 152.9779,-127.77139 174.8828,-185.48774 z"
                 sodipodi:nodetypes="ccccc" /><path
                 id="path13"
                 style="stroke-width:4.11777;stroke-linejoin:bevel;stroke-dashoffset:3.77953"
                 inkscape:transform-center-x="7.9666819"
                 inkscape:transform-center-y="3.9754453"
                 d="m 1298,-56.741044 c 7.7963,-8.333748 61.4198,-65.916196 72.2309,-112.489936 -20.3916,-0.98025 -53.6329,6.60834 -53.8584,11.58291 0.771,38.69834 -9.6087,66.539289 -18.3725,100.907026 z"
                 sodipodi:nodetypes="cccc" /><path
                 id="rect1"
                 style="fill:#fee71f;stroke:#000000;stroke-width:4.37294;stroke-linejoin:bevel;stroke-dasharray:none;stroke-dashoffset:3.77953"
                 d="M 1163.1252,-8.0663287 C 1084.261,-59.700095 1017.0096,-33.570635 969.49872,-5.3770178 901.05044,35.241177 910.10599,134.88652 919.68556,116.76423 l -7.70773,14.58121 c -47.47435,89.8102 37.16807,124.77399 57.52089,136.74138 55.22308,32.47097 121.87728,31.48967 193.62648,-7.71179 40.1916,-21.95936 94.9472,-61.07417 57.5209,-133.31673 l -4.8173,-9.29876 c -8.4252,-16.2628 32.7851,-69.854939 -52.7036,-125.8258687 z"
                 sodipodi:nodetypes="sssssssss" /><g
                 id="g5"
                 transform="matrix(-1.3287967,0.01845588,0,1.3287967,1663.9558,-511.91747)"><g
                   id="g4"><circle
                     style="fill:#000000;stroke:none;stroke-width:8.43262;stroke-linejoin:bevel;stroke-dashoffset:3.77953"
                     id="path1"
                     cx="382.55493"
                     cy="460.60614"
                     r="22.347597" /><circle
                     style="fill:#ffffff;stroke:none;stroke-width:11.6354;stroke-linejoin:bevel;stroke-dashoffset:3.77953"
                     id="path2"
                     cx="389.7431"
                     cy="450.96573"
                     r="9.8220472" /><path
                     id="rect4"
                     style="opacity:0.464;fill:#ffffff;stroke-width:6.06534;stroke-linejoin:bevel;stroke-dashoffset:3.77953"
                     d="m 375.99714,470.56401 c 8.00909,4.52963 12.22266,-0.0307 12.45099,-0.0668 6.73594,-1.0659 9.73405,-2.6949 7.58231,4.4435 -0.36091,1.19732 -1.48015,3.04587 -6.35249,5.002 -4.21033,1.69035 -10.48255,1.83551 -13.15692,0.72699 -3.86952,-1.6039 -9.29005,-5.56302 -9.91024,-7.53304 -3.52115,-11.18491 5.53108,-4.75302 9.38635,-2.57263 z"
                     sodipodi:nodetypes="sssssss" /></g></g><g
                 id="g9"
                 transform="matrix(-1.3287967,0.01845588,0,1.3287967,1484.5701,-509.42595)"><g
                   id="g8"
                   transform="matrix(-1,0,0,1,765.10986,0)"><circle
                     style="fill:#000000;stroke:none;stroke-width:8.43262;stroke-linejoin:bevel;stroke-dashoffset:3.77953"
                     id="circle6"
                     cx="382.55493"
                     cy="460.60614"
                     r="22.347597" /><circle
                     style="fill:#ffffff;stroke:none;stroke-width:11.6354;stroke-linejoin:bevel;stroke-dashoffset:3.77953"
                     id="circle7"
                     cx="389.7431"
                     cy="450.96573"
                     r="9.8220472" /><path
                     id="path7"
                     style="opacity:0.464;fill:#ffffff;stroke-width:6.06534;stroke-linejoin:bevel;stroke-dashoffset:3.77953"
                     d="m 375.99714,470.56401 c 8.00909,4.52963 12.22266,-0.0307 12.45099,-0.0668 6.73594,-1.0659 9.73405,-2.6949 7.58231,4.4435 -0.36091,1.19732 -1.48015,3.04587 -6.35249,5.002 -4.21033,1.69035 -10.48255,1.83551 -13.15692,0.72699 -3.86952,-1.6039 -9.29005,-5.56302 -9.91024,-7.53304 -3.52115,-11.18491 5.53108,-4.75302 9.38635,-2.57263 z"
                     sodipodi:nodetypes="sssssss" /><ellipse
                     style="fill:#ffffff;stroke:none;stroke-width:11.8694;stroke-linejoin:bevel;stroke-dashoffset:3.77953"
                     id="circle8"
                     cx="380.15704"
                     cy="476.81665"
                     rx="5.104013"
                     ry="4.3480692" /><ellipse
                     style="fill:#ffffff;stroke:none;stroke-width:11.8694;stroke-linejoin:bevel;stroke-dashoffset:3.77953"
                     id="ellipse10"
                     cx="519.39368"
                     cy="476.81665"
                     rx="5.104013"
                     ry="4.3480692" /></g></g><path
                 id="path10"
                 style="fill:#e70002;stroke:#000000;stroke-width:1.27025;stroke-linejoin:bevel;stroke-dashoffset:3.77953"
                 d="m 1168.033,184.05072 c -4.3147,21.2098 20.0916,44.49914 37.0418,43.25432 10.4058,-0.76421 28.0913,-32.21485 27.9913,-49.70949 -0.1279,-22.39315 -2.8483,-27.03502 -23.8763,-29.28972 -21.0288,-2.25482 -36.9313,14.97351 -41.1568,35.74489 z"
                 sodipodi:nodetypes="sssss" /><path
                 id="path11"
                 style="fill:#e70002;stroke:#000000;stroke-width:1.27025;stroke-linejoin:bevel;stroke-dashoffset:3.77953"
                 d="m 961.70892,183.64251 c 3.7132,20.99914 -20.98086,47.81877 -37.68212,48.74133 -10.25301,0.56637 -26.90218,-29.11509 -26.35289,-46.90823 0.7031,-22.77521 3.50825,-27.84399 24.32533,-32.84952 20.81787,-5.00574 36.07321,10.45134 39.70968,31.01642 z"
                 sodipodi:nodetypes="sssss" /><path
                 id="path14"
                 style="fill:#fde71f;stroke-width:1.77837;stroke-linejoin:bevel;stroke-dashoffset:3.77953"
                 d="m 1153.7351,-1.0762201 c 2.1071,9.7317019 8.0951,17.9684891 18.0809,17.8297941 9.9858,-0.138694 18.0809,-8.346238 18.0809,-18.3320522 0,-9.9858278 -8.0952,-17.9168368 -18.0809,-17.8298078 -10.6241,0.09255 -20.0044,9.4487475 -18.0809,18.3320659 z"
                 sodipodi:nodetypes="sssss" /><path
                 id="path15"
                 style="fill:#fde71f;stroke:#000000;stroke-width:3.76165;stroke-linejoin:bevel;stroke-dasharray:none;stroke-dashoffset:3.77953"
                 d="m 757.61237,-133.26042 -3.64647,-11.46689 c 87.76263,-7.04587 209.33495,104.916942 214.05818,149.4147683 L 932.49522,42.828132 C 867.23783,20.880075 779.51733,-76.721365 757.61237,-133.26042 Z"
                 sodipodi:nodetypes="ccccc" /><path
                 id="path16"
                 style="stroke-width:4.11777;stroke-linejoin:bevel;stroke-dashoffset:3.77953"
                 inkscape:transform-center-x="7.9666819"
                 inkscape:transform-center-y="3.9754453"
                 d="m 826.47913,-35.785007 c -7.79629,-7.914732 -61.41981,-62.615145 -72.23092,-108.607833 20.39164,-2.07622 53.63287,3.7258 53.85843,8.68825 -0.77102,38.739774 9.60861,66.022866 18.37249,99.919583 z"
                 sodipodi:nodetypes="cccc" /><path
                 id="path17"
                 style="fill:#fde71f;stroke-width:2.33026;stroke-linejoin:bevel;stroke-dashoffset:3.77953"
                 d="m 970.66586,17.595513 c -9.48947,9.242283 -10.60732,24.114886 -23.69211,24.636396 -13.08478,0.52151 -23.6921,-9.663036 -23.6921,-22.747817 0,-13.0847936 10.6576,-23.2407309 23.6921,-24.636409 18.25037,-1.9541695 40.17886,6.6905217 23.69211,22.74783 z"
                 sodipodi:nodetypes="sssss" /><path
                 id="path18"
                 style="stroke-width:3.76165;stroke-linejoin:bevel;stroke-dashoffset:3.77953"
                 d="m 1060.0034,131.12273 c 0.119,4.86497 4.2038,5.32478 7.6226,5.23047 3.1558,-0.0871 8.225,-2.9042 6.2417,-6.00844 -5.7461,-0.89197 -13.0465,-0.0925 -13.8643,0.77797 z"
                 sodipodi:nodetypes="cscc" /><path
                 style="fill:none;fill-opacity:1;stroke:#000000;stroke-width:3.76165;stroke-linejoin:bevel;stroke-dasharray:none;stroke-dashoffset:3.77953;stroke-opacity:1"
                 d="m 1117.6054,167.17437 c -11.0925,17.48937 -34.3511,11.21441 -52.7388,-2.46379"
                 id="path19"
                 sodipodi:nodetypes="cc" /><path
                 style="fill:none;fill-opacity:1;stroke:#000000;stroke-width:3.76165;stroke-linejoin:bevel;stroke-dasharray:none;stroke-dashoffset:3.77953;stroke-opacity:1"
                 d="m 1067.131,164.60643 c -18.6671,14.72615 -46.2015,22.86338 -54.1879,6.42246"
                 id="path20"
                 sodipodi:nodetypes="cc" /><g
                 id="g30"
                 transform="matrix(-1.3287967,0.01845588,0,1.3287967,3154.4273,-427.8533)"><g
                   id="g29"><g
                     id="g28"><path
                       id="rect26"
                       style="fill:#fee71f;stroke:#000000;stroke-width:2.83087;stroke-linejoin:bevel;stroke-dashoffset:3.77953"
                       d="m 1389.3853,614.96707 c 7.6994,-11.79396 7.4164,-6.38597 12.344,-6.93181 7.3526,-22.38096 80.9007,66.86709 73.1737,66.82603 2.7478,25.63627 -14.2101,22.12527 -13.6135,21.63151 -9.5529,8.0291 -77.2541,-68.24781 -71.9042,-81.52573 z"
                       sodipodi:nodetypes="ccccc" /><path
                       style="fill:none;fill-opacity:1;stroke:#000000;stroke-width:2.83087;stroke-linejoin:bevel;stroke-dasharray:none;stroke-dashoffset:3.77953;stroke-opacity:1"
                       d="m 1393.5328,610.03599 c 0.8508,10.21594 13.6188,25.18239 18.2982,29.92424"
                       id="path26"
                       sodipodi:nodetypes="cc" /><path
                       style="fill:none;fill-opacity:1;stroke:#000000;stroke-width:2.83087;stroke-linejoin:bevel;stroke-dasharray:none;stroke-dashoffset:3.77953;stroke-opacity:1"
                       d="m 1401.5459,607.89785 c 0.8508,10.21594 13.6188,25.18239 18.2982,29.92424"
                       id="path27"
                       sodipodi:nodetypes="cc" /><path
                       id="rect27"
                       style="stroke-width:2.83087;stroke-linejoin:bevel;stroke-dashoffset:3.77953"
                       d="m 1460.3784,695.40289 c 0.7814,-0.0271 1.5319,-0.20516 2.5011,0.0749 l -0.096,0.80181 c -0.3469,3.23919 -1.5676,0.17908 -2.3887,0 z"
                       sodipodi:nodetypes="ccccc" /><path
                       id="rect28"
                       style="stroke-width:2.83087;stroke-linejoin:bevel;stroke-dashoffset:3.77953"
                       d="m 1474.0391,673.86328 c -0.09,-0.73958 0.6797,-1.11068 0.9336,-0.3711 l -0.6641,0.98048 h -0.2461 z"
                       sodipodi:nodetypes="ccccc" /></g></g></g><g
                 id="g37"
                 transform="matrix(1.3287967,-0.06311605,0,1.3287967,-1040.7413,-306.94369)"><g
                   id="g36"><g
                     id="g35"><path
                       id="path31"
                       style="fill:#fee71f;stroke:#000000;stroke-width:2.83087;stroke-linejoin:bevel;stroke-dashoffset:3.77953"
                       d="m 1389.3853,614.96707 c 7.6994,-11.79396 7.4164,-6.38597 12.344,-6.93181 7.3526,-22.38096 80.9007,66.86709 73.1737,66.82603 2.7478,25.63627 -14.2101,22.12527 -13.6135,21.63151 -9.5529,8.0291 -77.2541,-68.24781 -71.9042,-81.52573 z"
                       sodipodi:nodetypes="ccccc" /><path
                       style="fill:none;fill-opacity:1;stroke:#000000;stroke-width:2.83087;stroke-linejoin:bevel;stroke-dasharray:none;stroke-dashoffset:3.77953;stroke-opacity:1"
                       d="m 1393.5328,610.03599 c 0.8508,10.21594 13.6188,25.18239 18.2982,29.92424"
                       id="path32"
                       sodipodi:nodetypes="cc" /><path
                       style="fill:none;fill-opacity:1;stroke:#000000;stroke-width:2.83087;stroke-linejoin:bevel;stroke-dasharray:none;stroke-dashoffset:3.77953;stroke-opacity:1"
                       d="m 1401.5459,607.89785 c 0.8508,10.21594 13.6188,25.18239 18.2982,29.92424"
                       id="path33"
                       sodipodi:nodetypes="cc" /><path
                       id="path34"
                       style="stroke-width:2.83087;stroke-linejoin:bevel;stroke-dashoffset:3.77953"
                       d="m 1460.3784,695.40289 c 0.7814,-0.0271 1.5319,-0.20516 2.5011,0.0749 l -0.096,0.80181 c -0.3469,3.23919 -1.5676,0.17908 -2.3887,0 z"
                       sodipodi:nodetypes="ccccc" /><path
                       id="path35"
                       style="stroke-width:2.83087;stroke-linejoin:bevel;stroke-dashoffset:3.77953"
                       d="m 1474.0391,673.86328 c -0.09,-0.73958 0.6797,-1.11068 0.9336,-0.3711 l -0.6641,0.98048 h -0.2461 z"
                       sodipodi:nodetypes="ccccc" /></g></g></g><g
                 id="g91"
                 transform="matrix(-1.3287967,0.01845588,0,1.3287967,2449.0639,90.811704)"><g
                   id="g67"><g
                     id="g66"><g
                       id="g56"><g
                         id="g46"><g
                           id="g45"><g
                             id="g44"><g
                               id="g43"><path
                                 id="rect38"
                                 style="fill:#fee71f;stroke:#000000;stroke-width:2.83087;stroke-linejoin:bevel;stroke-dashoffset:3.77953"
                                 d="m 929.75002,205.5 86.75428,-47.43934 c 17.0073,43.55123 12.6664,89.08633 8.3085,127.73654 L 977.12502,297.25 c -30.8094,-31.65603 -44.5337,-62.09169 -47.375,-91.75 z"
                                 sodipodi:nodetypes="ccccc" /><path
                                 id="path38"
                                 style="fill:#fee71f;stroke:#000000;stroke-width:2.83087;stroke-linejoin:bevel;stroke-dashoffset:3.77953"
                                 inkscape:transform-center-x="-0.81884983"
                                 inkscape:transform-center-y="-0.050460524"
                                 d="m 977.12499,305.93749 c 0.2079,-2.2618 -0.359,-5.33195 -0.8758,-9.60675 l 10.0008,6.5885 z"
                                 sodipodi:nodetypes="cccc" /><path
                                 id="path39"
                                 style="fill:#fee71f;stroke:#000000;stroke-width:2.83087;stroke-linejoin:bevel;stroke-dashoffset:3.77953"
                                 inkscape:transform-center-x="-0.53354983"
                                 inkscape:transform-center-y="0.94121948"
                                 d="m 999.50289,300.2902 c -0.796,1.74826 -3.4162,3.04237 -7.713,7.54225 -6.4973,-6.31452 -5.0073,-6.24697 -5.4109,-10.48524 z"
                                 sodipodi:nodetypes="cccc" /><path
                                 id="path40"
                                 style="fill:#fee71f;stroke:#000000;stroke-width:2.83087;stroke-linejoin:bevel;stroke-dashoffset:3.77953"
                                 inkscape:transform-center-x="-0.53354983"
                                 inkscape:transform-center-y="0.94121948"
                                 d="m 1009.2841,297.7902 c -0.8842,2.06574 -1.5623,6.84347 -4.838,7.66725 -2.8242,-0.28686 -5.00731,-4.77822 -5.41091,-9.01649 z"
                                 sodipodi:nodetypes="cccc" /><path
                                 id="path41"
                                 style="fill:#fee71f;stroke:#000000;stroke-width:2.83087;stroke-linejoin:bevel;stroke-dashoffset:3.77953"
                                 inkscape:transform-center-x="-0.53354983"
                                 inkscape:transform-center-y="0.94121948"
                                 d="m 1019.6697,295.93404 c -2.5085,1.56534 -1.9708,4.08824 -3.2913,5.41335 -10.8845,-3.19751 -7.8735,-7.09549 -7.0239,-11.04942 z"
                                 sodipodi:nodetypes="cccc" /><path
                                 id="path42"
                                 style="fill:#fee71f;stroke:#000000;stroke-width:2.83087;stroke-linejoin:bevel;stroke-dashoffset:3.77953"
                                 inkscape:transform-center-x="-0.53354983"
                                 inkscape:transform-center-y="0.94121948"
                                 d="m 1024.6853,285.51217 c -2.5085,1.56534 0.4667,9.19761 -0.8538,10.52272 -10.9508,0.51655 -7.7953,-3.72049 -6.9457,-7.67442 z"
                                 sodipodi:nodetypes="cccc" /><path
                                 id="rect42"
                                 style="fill:#fee71f;stroke-width:0.868625;stroke-linejoin:bevel;stroke-dashoffset:3.77953"
                                 d="m 979.14342,283.85984 38.98628,-10.9209 c 1.5452,4.97003 8.5129,7.69799 3.9631,15.59816 l -41.16433,9.337 c -11.61718,-6.43907 -1.44829,-9.38428 -1.78505,-14.01426 z"
                                 sodipodi:nodetypes="ccccc" /></g><path
                               id="rect43"
                               style="fill:#fee71f;stroke-width:0.511583;stroke-linejoin:bevel;stroke-dashoffset:3.77953"
                               transform="matrix(0.9498551,-0.3126904,0.26054492,0.96546173,0,0)"
                               d="m 871.67145,576.94336 h 39.24074 v 16.0557 l -39.59014,2.60931 c -8.79836,0.52166 0.0399,-12.55714 0.3494,-18.66501 z"
                               sodipodi:nodetypes="ccccc" /></g><path
                             id="rect45"
                             style="fill:#fee71f;stroke-width:0.56315;stroke-linejoin:bevel;stroke-dashoffset:3.77953"
                             d="M 1009.75,279.0625 H 1020 l -1.4651,15.14575 c -10.7837,-1.91646 -5.8566,-3.38883 -8.7849,-5.08325 z"
                             sodipodi:nodetypes="ccccc" /></g><path
                           id="rect46"
                           style="fill:#fee71f;stroke-width:0.56315;stroke-linejoin:bevel;stroke-dashoffset:3.77953"
                           d="m 1003.2188,288.59375 h 10.9688 l 4.331,2.98082 c -0.1579,8.97935 -9.7527,5.27216 -17.156,4.06586 z"
                           sodipodi:nodetypes="ccccc" /></g><rect
                         style="fill:#fee71f;fill-opacity:1;stroke:none;stroke-width:0.572695;stroke-linejoin:bevel;stroke-dasharray:none;stroke-dashoffset:3.77953;stroke-opacity:1"
                         id="rect47"
                         width="3.0131178"
                         height="3.1109185"
                         x="1024.5219"
                         y="-293.48083"
                         transform="matrix(0.84638274,0.53257513,-0.50674405,0.86209655,0,0)" /></g><rect
                       style="fill:#000000;fill-opacity:1;stroke:none;stroke-width:0.56315;stroke-linejoin:bevel;stroke-dasharray:none;stroke-dashoffset:3.77953;stroke-opacity:1"
                       id="rect56"
                       width="1.953125"
                       height="3.2734375"
                       x="1054.546"
                       y="-136.76358"
                       transform="rotate(22.945084)" /></g></g><rect
                   style="fill:#fee71f;fill-opacity:1;stroke:none;stroke-width:0.56315;stroke-linejoin:bevel;stroke-dasharray:none;stroke-dashoffset:3.77953;stroke-opacity:1"
                   id="rect67"
                   width="12.3125"
                   height="7.96875"
                   x="1036.2028"
                   y="-75.478294"
                   transform="rotate(20.31071)" /></g><rect
                 style="fill:#fee71f;fill-opacity:1;stroke:none;stroke-width:0.748314;stroke-linejoin:bevel;stroke-dasharray:none;stroke-dashoffset:3.77953;stroke-opacity:1"
                 id="rect91"
                 width="20.828722"
                 height="9.4065533"
                 x="-1204.0033"
                 y="-304.32693"
                 transform="matrix(-0.78586833,-0.61839386,-0.62085061,0.7839289,0,0)" /><rect
                 style="fill:#fee71f;fill-opacity:1;stroke:none;stroke-width:0.748314;stroke-linejoin:bevel;stroke-dasharray:none;stroke-dashoffset:3.77953;stroke-opacity:1"
                 id="rect117"
                 width="6.4749875"
                 height="4.3453169"
                 x="-1192.4528"
                 y="-269.70154"
                 transform="matrix(-0.79815212,-0.60245596,-0.60537694,0.79593892,0,0)" /><g
                 id="g130"
                 transform="matrix(1.3287967,0,0,1.3287967,-336.55595,111.4287)"><g
                   id="g129"><g
                     id="g128"><g
                       id="g127"><g
                         id="g126"><g
                           id="g125"><g
                             id="g124"><path
                               id="path118"
                               style="fill:#fee71f;stroke:#000000;stroke-width:2.83087;stroke-linejoin:bevel;stroke-dashoffset:3.77953"
                               d="m 929.75002,205.5 86.75428,-47.43934 c 17.0073,43.55123 12.6664,89.08633 8.3085,127.73654 L 977.12502,297.25 c -30.8094,-31.65603 -44.5337,-62.09169 -47.375,-91.75 z"
                               sodipodi:nodetypes="ccccc" /><path
                               id="path119"
                               style="fill:#fee71f;stroke:#000000;stroke-width:2.83087;stroke-linejoin:bevel;stroke-dashoffset:3.77953"
                               inkscape:transform-center-x="-0.81884983"
                               inkscape:transform-center-y="-0.050460524"
                               d="m 977.12499,305.93749 c 0.2079,-2.2618 -0.359,-5.33195 -0.8758,-9.60675 l 10.0008,6.5885 z"
                               sodipodi:nodetypes="cccc" /><path
                               id="path120"
                               style="fill:#fee71f;stroke:#000000;stroke-width:2.83087;stroke-linejoin:bevel;stroke-dashoffset:3.77953"
                               inkscape:transform-center-x="-0.53354983"
                               inkscape:transform-center-y="0.94121948"
                               d="m 999.50289,300.2902 c -0.796,1.74826 -3.4162,3.04237 -7.713,7.54225 -6.4973,-6.31452 -5.0073,-6.24697 -5.4109,-10.48524 z"
                               sodipodi:nodetypes="cccc" /><path
                               id="path121"
                               style="fill:#fee71f;stroke:#000000;stroke-width:2.83087;stroke-linejoin:bevel;stroke-dashoffset:3.77953"
                               inkscape:transform-center-x="-0.53354983"
                               inkscape:transform-center-y="0.94121948"
                               d="m 1009.2841,297.7902 c -0.8842,2.06574 -1.5623,6.84347 -4.838,7.66725 -2.8242,-0.28686 -5.00731,-4.77822 -5.41091,-9.01649 z"
                               sodipodi:nodetypes="cccc" /><path
                               id="path122"
                               style="fill:#fee71f;stroke:#000000;stroke-width:2.83087;stroke-linejoin:bevel;stroke-dashoffset:3.77953"
                               inkscape:transform-center-x="-0.53354983"
                               inkscape:transform-center-y="0.94121948"
                               d="m 1019.6697,295.93404 c -2.5085,1.56534 -1.9708,4.08824 -3.2913,5.41335 -10.8845,-3.19751 -7.8735,-7.09549 -7.0239,-11.04942 z"
                               sodipodi:nodetypes="cccc" /><path
                               id="path123"
                               style="fill:#fee71f;stroke:#000000;stroke-width:2.83087;stroke-linejoin:bevel;stroke-dashoffset:3.77953"
                               inkscape:transform-center-x="-0.53354983"
                               inkscape:transform-center-y="0.94121948"
                               d="m 1024.6853,285.51217 c -2.5085,1.56534 0.4667,9.19761 -0.8538,10.52272 -10.9508,0.51655 -7.7953,-3.72049 -6.9457,-7.67442 z"
                               sodipodi:nodetypes="cccc" /><path
                               id="path124"
                               style="fill:#fee71f;stroke-width:0.868625;stroke-linejoin:bevel;stroke-dashoffset:3.77953"
                               d="m 979.14342,283.85984 38.98628,-10.9209 c 1.5452,4.97003 8.5129,7.69799 3.9631,15.59816 l -41.16433,9.337 c -11.61718,-6.43907 -1.44829,-9.38428 -1.78505,-14.01426 z"
                               sodipodi:nodetypes="ccccc" /></g><path
                             id="path125"
                             style="fill:#fee71f;stroke-width:0.511583;stroke-linejoin:bevel;stroke-dashoffset:3.77953"
                             transform="matrix(0.9498551,-0.3126904,0.26054492,0.96546173,0,0)"
                             d="m 871.67145,576.94336 h 39.24074 v 16.0557 l -39.59014,2.60931 c -8.79836,0.52166 0.0399,-12.55714 0.3494,-18.66501 z"
                             sodipodi:nodetypes="ccccc" /></g><path
                           id="path126"
                           style="fill:#fee71f;stroke-width:0.56315;stroke-linejoin:bevel;stroke-dashoffset:3.77953"
                           d="M 1009.75,279.0625 H 1020 l -1.4651,15.14575 c -10.7837,-1.91646 -5.8566,-3.38883 -8.7849,-5.08325 z"
                           sodipodi:nodetypes="ccccc" /></g><path
                         id="path127"
                         style="fill:#fee71f;stroke-width:0.56315;stroke-linejoin:bevel;stroke-dashoffset:3.77953"
                         d="m 1003.2188,288.59375 h 10.9688 l 4.331,2.98082 c -0.1579,8.97935 -9.7527,5.27216 -17.156,4.06586 z"
                         sodipodi:nodetypes="ccccc" /></g><rect
                       style="fill:#fee71f;fill-opacity:1;stroke:none;stroke-width:0.572695;stroke-linejoin:bevel;stroke-dasharray:none;stroke-dashoffset:3.77953;stroke-opacity:1"
                       id="rect127"
                       width="3.0131178"
                       height="3.1109185"
                       x="1024.5219"
                       y="-293.48083"
                       transform="matrix(0.84638274,0.53257513,-0.50674405,0.86209655,0,0)" /></g><rect
                     style="fill:#000000;fill-opacity:1;stroke:none;stroke-width:0.56315;stroke-linejoin:bevel;stroke-dasharray:none;stroke-dashoffset:3.77953;stroke-opacity:1"
                     id="rect128"
                     width="1.953125"
                     height="3.2734375"
                     x="1054.546"
                     y="-136.76358"
                     transform="rotate(22.945084)" /></g></g><rect
                 style="fill:#fee71f;fill-opacity:1;stroke:none;stroke-width:0.748312;stroke-linejoin:bevel;stroke-dasharray:none;stroke-dashoffset:3.77953;stroke-opacity:1"
                 id="rect130"
                 width="16.360809"
                 height="10.588848"
                 x="1099.9507"
                 y="121.02747"
                 transform="rotate(20.31071)" /><rect
                 style="fill:#fee71f;fill-opacity:1;stroke:none;stroke-width:0.748312;stroke-linejoin:bevel;stroke-dasharray:none;stroke-dashoffset:3.77953;stroke-opacity:1"
                 id="rect131"
                 width="20.970072"
                 height="9.3431015"
                 x="445.1636"
                 y="1007.7264"
                 transform="rotate(-38.687104)" /><rect
                 style="fill:#fee71f;fill-opacity:1;stroke:none;stroke-width:0.748312;stroke-linejoin:bevel;stroke-dasharray:none;stroke-dashoffset:3.77953;stroke-opacity:1"
                 id="rect132"
                 width="6.5184832"
                 height="4.3162928"
                 x="482.55447"
                 y="1008.9403"
                 transform="rotate(-37.549576)" /><path
                 id="rect134"
                 style="fill:#fee71f;stroke-width:0.794023;stroke-linejoin:bevel;stroke-dashoffset:3.77953"
                 d="m 1218.3281,370.68479 -116.7305,-57.71161 -9.516,39.15551 106.9821,49.62549 z"
                 sodipodi:nodetypes="ccccc" /><path
                 id="path134"
                 style="fill:#fee71f;stroke-width:0.794022;stroke-linejoin:bevel;stroke-dashoffset:3.77953"
                 d="m 912.96603,408.19402 101.99737,-73.07671 -4.4902,-28.16015 -114.55016,69.38925 z"
                 sodipodi:nodetypes="ccccc" /></g></g></g></g></g></g></svg>
