<?xml version="1.0" encoding="UTF-8" standalone="no"?>
<!-- Created with Inkscape (http://www.inkscape.org/) -->

<svg
   width="210mm"
   height="297mm"
   viewBox="0 0 793.70081 1122.5197"
   version="1.1"
   id="svg1"
   xml:space="preserve"
   inkscape:version="1.4.2 (f4327f4, 2025-05-13)"
   sodipodi:docname="pikachu.svg"
   xmlns:inkscape="http://www.inkscape.org/namespaces/inkscape"
   xmlns:sodipodi="http://sodipodi.sourceforge.net/DTD/sodipodi-0.dtd"
   xmlns="http://www.w3.org/2000/svg"
   xmlns:svg="http://www.w3.org/2000/svg"><sodipodi:namedview
     id="namedview1"
     pagecolor="#ffffff"
     bordercolor="#cccccc"
     borderopacity="1"
     inkscape:showpageshadow="0"
     inkscape:pageopacity="1"
     inkscape:pagecheckerboard="0"
     inkscape:deskcolor="#d1d1d1"
     inkscape:document-units="mm"
     inkscape:zoom="0.35355339"
     inkscape:cx="585.48441"
     inkscape:cy="640.63874"
     inkscape:window-width="1366"
     inkscape:window-height="705"
     inkscape:window-x="-8"
     inkscape:window-y="-8"
     inkscape:window-maximized="1"
     inkscape:current-layer="g133" /><defs
     id="defs1"><inkscape:path-effect
       effect="fillet_chamfer"
       id="path-effect13"
       is_visible="true"
       lpeversion="1"
       nodesatellites_param="F,0,0,1,0,124.73077,0,1 @ F,0,0,1,0,109.28451,0,1 @ F,0,0,1,0,188.60805,0,1 @ F,0,0,1,0,57.82972,0,1"
       radius="28.914859"
       unit="mm"
       method="auto"
       mode="F"
       chamfer_steps="1"
       flexible="false"
       use_knot_distance="true"
       apply_no_radius="true"
       apply_with_radius="true"
       only_selected="false"
       hide_knots="false" /><inkscape:path-effect
       effect="fillet_chamfer"
       id="path-effect12"
       is_visible="true"
       lpeversion="1"
       nodesatellites_param="F,0,0,1,0,35.107442,0,1 @ F,0,0,1,0,35.107442,0,1 @ F,0,0,1,0,35.107442,0,1 @ F,0,0,1,0,35.107442,0,1"
       radius="0"
       unit="px"
       method="auto"
       mode="F"
       chamfer_steps="1"
       flexible="false"
       use_knot_distance="true"
       apply_no_radius="true"
       apply_with_radius="true"
       only_selected="false"
       hide_knots="false" /><inkscape:path-effect
       effect="powerstroke"
       message=""
       id="path-effect3"
       is_visible="true"
       lpeversion="1.3"
       scale_width="1"
       interpolator_type="CubicBezierJohan"
       interpolator_beta="0.2"
       start_linecap_type="zerowidth"
       end_linecap_type="zerowidth"
       offset_points="0,4.9921382"
       linejoin_type="extrp_arc"
       miter_limit="4"
       not_jump="false"
       sort_points="true" /><inkscape:path-effect
       effect="fill_between_many"
       method="bsplinespiro"
       autoreverse="false"
       close="false"
       join="false"
       linkedpaths="#path3,0,1"
       id="path-effect4" /></defs><g
     inkscape:label="Camada 1"
     inkscape:groupmode="layer"
     id="layer1"><g
       id="g133"
       transform="matrix(-1,0.01388917,0,1,1435.8419,346.89902)"><g
         id="g132"><g
           id="g186"
           transform="translate(474.77628,-1.4287724)"><g
             id="g185" /></g></g><g
         id="g188"
         transform="matrix(1.3287967,0,0,1.3287967,-310.32164,111.06433)"><g
           id="g187"
           transform="translate(4.2571255,-0.05912794)"><g
             id="g184"
             transform="translate(473.00852,-7.7681776)"><g
               id="g183"><g
                 id="g182"><g
                   id="g181"><g
                     id="g180"><g
                       id="g179"><g
                         id="g178"><g
                           id="g177"><g
                             id="g176"><g
                               id="g149"><g
                                 id="g148"><g
                                   id="g146"><g
                                   id="g145"><g
                                   id="g144"
                                   transform="translate(862.67029,-24.709697)"><g
                                   id="g140"><path
                                   id="rect138"
                                   style="fill:#fee71f;stroke:#000000;stroke-width:1.73487;stroke-linejoin:bevel;stroke-dasharray:none;stroke-dashoffset:3.77953;stroke-opacity:1"
                                   transform="matrix(-0.97520036,-0.22132386,-0.23340827,0.97237882,0,0)"
                                   d="M 403.88353,90.037339 C 465.40565,76.577737 563.4002,58.757202 589.96317,66.870198 582.62325,96.79944 545.45812,174.71345 538.94562,181.70109 l -113.44054,3.87039 z"
                                   sodipodi:nodetypes="ccccc" /><path
                                   id="rect139"
                                   style="fill:#fee71f;stroke:#000000;stroke-width:1.73488;stroke-linejoin:bevel;stroke-dashoffset:3.77953"
                                   transform="matrix(-0.99990356,0.01388783,0,1,0,0)"
                                   d="M 423.30892,124.62988 C 433.90056,84.746422 417.90707,76.856166 415.02983,-7.3701178 l 103.50999,153.1927978 -49.35147,21.25 c -12.48589,-28.37513 -37.70181,-32.8325 -45.87943,-42.4428 z"
                                   sodipodi:nodetypes="ccccc" /></g><path
                                   id="rect141"
                                   style="fill:#fee71f;stroke:#000000;stroke-width:1.73488;stroke-linejoin:bevel;stroke-dashoffset:3.77953"
                                   transform="matrix(-0.99990356,0.01388783,0,1,0,0)"
                                   d="m 412.22141,165.39987 15.09574,-9.375 c 11.92795,15.01854 39.17622,46.31337 35.64405,44.90712 l -29.87813,13.25825 c -11.9671,-16.51409 -15.0345,-32.58324 -20.86166,-48.79037 z"
                                   sodipodi:nodetypes="ccccc" /><path
                                   id="rect142"
                                   style="fill:#fee71f;stroke:#000000;stroke-width:1.89475;stroke-linejoin:bevel;stroke-dashoffset:3.77953"
                                   transform="matrix(-0.86897125,-0.49486258,-0.50086382,0.8655261,0,0)"
                                   d="m 288.68446,352.26221 25.9758,-0.4446 c 5.13184,10.31084 5.0779,20.72541 4.58321,31.14879 l -32.40369,-3.34759 z"
                                   sodipodi:nodetypes="ccccc" /></g><path
                                   id="rect144"
                                   style="fill:#fee71f;stroke-width:2.22609;stroke-linejoin:bevel;stroke-dashoffset:3.77953"
                                   transform="matrix(-0.715951,-0.69815053,-0.38656346,0.92226281,0,0)"
                                   d="m -433.22917,-353.23127 21.58351,6.22518 17.39853,97.05495 c -12.4989,1.05713 -25.74279,0.60514 -39.06229,0 z"
                                   sodipodi:nodetypes="ccccc" /></g><path
                                   id="rect145"
                                   style="fill:#fee71f;stroke-width:1.7348;stroke-linejoin:bevel;stroke-dashoffset:3.77953"
                                   d="m 446.86756,-25.808658 -2.58521,-0.204898 -0.24081,2.588561 2.63951,0.758444 z"
                                   sodipodi:nodetypes="ccccc" /></g><rect
                                   style="fill:#fee71f;fill-opacity:1;stroke:none;stroke-width:1.40514;stroke-linejoin:bevel;stroke-dasharray:none;stroke-dashoffset:3.77953;stroke-opacity:1"
                                   id="rect146"
                                   width="0.51515216"
                                   height="0.69571787"
                                   x="196.72305"
                                   y="-399.76791"
                                   transform="matrix(0.39639479,-0.91808015,-0.92182386,-0.38760904,0,0)" /><rect
                                   style="fill:#fee71f;fill-opacity:1;stroke:none;stroke-width:1.40514;stroke-linejoin:bevel;stroke-dasharray:none;stroke-dashoffset:3.77953;stroke-opacity:1"
                                   id="rect147"
                                   width="0.51010662"
                                   height="0.70260262"
                                   x="-404.73547"
                                   y="-187.26094"
                                   transform="matrix(-0.93111536,-0.3647248,-0.37404708,0.92740971,0,0)" /><rect
                                   style="fill:#fee71f;fill-opacity:1;stroke:none;stroke-width:1.40517;stroke-linejoin:bevel;stroke-dasharray:none;stroke-dashoffset:3.77953;stroke-opacity:1"
                                   id="rect148"
                                   width="0.51170081"
                                   height="0.7004419"
                                   x="-440.04529"
                                   y="-76.559517"
                                   transform="matrix(-0.99355112,-0.11338503,-0.12675233,0.9919344,0,0)" /></g></g><path
                               id="rect149"
                               style="fill:#fee71f;stroke-width:1.47682;stroke-linejoin:bevel;stroke-dashoffset:3.77953"
                               d="m 401.36841,122.26287 -9.75397,24.10161 10.53584,4.14166 9.75396,-24.10161 z" /><rect
                               style="fill:#fee71f;fill-opacity:1;stroke:none;stroke-width:1.89344;stroke-linejoin:bevel;stroke-dasharray:none;stroke-dashoffset:3.77953;stroke-opacity:1"
                               id="rect150"
                               width="2.0900612"
                               height="1.0586799"
                               x="-423.05545"
                               y="9.2191811"
                               transform="matrix(-0.94432996,-0.32899988,-0.44861217,0.89372653,0,0)" /><path
                               id="path158"
                               style="fill:#fee71f;stroke-width:1.47682;stroke-linejoin:bevel;stroke-dashoffset:3.77953"
                               d="m 401.36841,122.26287 -9.75397,24.10161 10.53584,4.14166 9.75396,-24.10161 z" /><rect
                               style="fill:#fee71f;fill-opacity:1;stroke:none;stroke-width:1.89344;stroke-linejoin:bevel;stroke-dasharray:none;stroke-dashoffset:3.77953;stroke-opacity:1"
                               id="rect158"
                               width="2.0900612"
                               height="1.0586799"
                               x="-423.05545"
                               y="9.2191811"
                               transform="matrix(-0.94432996,-0.32899988,-0.44861217,0.89372653,0,0)" /></g></g><rect
                           style="fill:#fee71f;fill-opacity:1;stroke:none;stroke-width:1.73481;stroke-linejoin:bevel;stroke-dasharray:none;stroke-dashoffset:3.77953;stroke-opacity:1"
                           id="rect177"
                           width="3.9125037"
                           height="3.3494384"
                           x="-414.65912"
                           y="-119.76278"
                           transform="matrix(-0.83894672,-0.54421357,-0.54882238,0.83593899,0,0)" /></g></g><rect
                       style="fill:#fee71f;fill-opacity:1;stroke:none;stroke-width:1.7348;stroke-linejoin:bevel;stroke-dasharray:none;stroke-dashoffset:3.77953;stroke-opacity:1"
                       id="rect179"
                       width="9.0871706"
                       height="9.3431635"
                       x="-438.66928"
                       y="-129.0871"
                       transform="matrix(-0.79850884,-0.60198309,-0.60491784,0.79628789,0,0)" /></g></g></g><rect
                 style="fill:#fee71f;fill-opacity:1;stroke:none;stroke-width:1.73482;stroke-linejoin:bevel;stroke-dasharray:none;stroke-dashoffset:3.77953;stroke-opacity:1"
                 id="rect182"
                 width="13.541004"
                 height="24.526686"
                 x="-450.72583"
                 y="-106.49612"
                 transform="matrix(-0.85556925,-0.51768837,-0.52305183,0.85230088,0,0)" /></g><rect
               style="fill:#fee71f;fill-opacity:1;stroke:none;stroke-width:1.99452;stroke-linejoin:bevel;stroke-dasharray:none;stroke-dashoffset:3.77953;stroke-opacity:1"
               id="rect183"
               width="1.3277621"
               height="2.0743036"
               x="-70.537537"
               y="449.241"
               transform="matrix(-0.45360619,0.89120223,0.89488599,0.44629482,0,0)" /></g><g
             id="g138"><g
               id="g137"><g
                 id="g136"><g
                   id="g135"><g
                     id="g42"
                     transform="matrix(-1,0.01388917,0,1,1435.8419,-366.84167)"><path
                       id="rect25"
                       style="fill:#fee71f;stroke:#000000;stroke-width:2.84511;stroke-linejoin:bevel;stroke-dashoffset:3.77953"
                       d="m 302.26708,450.77437 207.9075,4.48897 c 107.55519,206.13687 3.27352,202.12274 -16.3342,207.33191 -86.5628,-36.99878 -176.6927,0.63222 -188.4331,-4.67645 -103.06607,-108.04874 -11.57818,-97.97959 -3.1402,-207.14443 z"
                       sodipodi:nodetypes="ccccc" /><g
                       id="g15"
                       transform="translate(206.77343,-101.2965)"><path
                         id="rect13"
                         style="fill:#fde71f;stroke:#000000;stroke-width:2.83087;stroke-linejoin:bevel;stroke-dasharray:none;stroke-dashoffset:3.77953"
                         d="m -28.86027,263.30093 -2.74419,-8.7389 c 66.0467,-2.67006 157.53723,85.23523 161.09175,118.86421 l -26.73762,27.6375 C 53.63953,382.58914 -12.37546,306.50702 -28.86027,263.30093 Z"
                         sodipodi:nodetypes="ccccc" /><path
                         id="path13"
                         style="stroke-width:3.09887;stroke-linejoin:bevel;stroke-dashoffset:3.77953"
                         inkscape:transform-center-x="7.9666819"
                         inkscape:transform-center-y="3.9754453"
                         d="m 22.96614,338.7227 c -5.86718,-6.19016 -46.22213,-48.96394 -54.35814,-83.9005 15.34594,-0.95084 40.36198,4.41258 40.53173,8.15389 -0.58024,29.1309 7.23106,49.97441 13.82641,75.74661 z"
                         sodipodi:nodetypes="cccc" /></g><path
                       id="rect1"
                       style="fill:#fee71f;stroke:#000000;stroke-width:3.2909;stroke-linejoin:bevel;stroke-dasharray:none;stroke-dashoffset:3.77953"
                       d="m 331.24102,272.6471 c 59.35009,-39.68186 109.96088,-20.7208 145.71567,0 51.51148,29.8522 44.69663,104.93601 37.48742,91.39802 l 5.80054,10.89268 c 35.72732,67.09139 -27.97123,94.28848 -43.28796,103.5074 -41.55871,25.01359 -91.72,24.9718 -145.71567,-3.77972 -30.2466,-16.10565 -71.45347,-44.96958 -43.28795,-99.72768 l 3.62534,-7.04823 c 6.34044,-12.32681 -24.6728,-52.22739 39.66261,-95.24247 z"
                       sodipodi:nodetypes="sssssssss" /><g
                       id="g6"
                       transform="translate(-45.66434,-101.2965)"><g
                         id="g5"><g
                           id="g4"><circle
                             style="fill:#000000;stroke:none;stroke-width:8.43262;stroke-linejoin:bevel;stroke-dashoffset:3.77953"
                             id="path1"
                             cx="382.55493"
                             cy="460.60614"
                             r="22.347597" /><circle
                             style="fill:#ffffff;stroke:none;stroke-width:11.6354;stroke-linejoin:bevel;stroke-dashoffset:3.77953"
                             id="path2"
                             cx="389.7431"
                             cy="450.96573"
                             r="9.8220472" /><path
                             id="rect4"
                             style="opacity:0.464;fill:#ffffff;stroke-width:6.06534;stroke-linejoin:bevel;stroke-dashoffset:3.77953"
                             d="m 375.99714,470.56401 c 8.00909,4.52963 12.22266,-0.0307 12.45099,-0.0668 6.73594,-1.0659 9.73405,-2.6949 7.58231,4.4435 -0.36091,1.19732 -1.48015,3.04587 -6.35249,5.002 -4.21033,1.69035 -10.48255,1.83551 -13.15692,0.72699 -3.86952,-1.6039 -9.29005,-5.56302 -9.91024,-7.53304 -3.52115,-11.18491 5.53108,-4.75302 9.38635,-2.57263 z"
                             sodipodi:nodetypes="sssssss" /></g></g></g><g
                       id="g10"
                       transform="translate(89.33427,-101.2965)"><g
                         id="g9"><g
                           id="g8"
                           transform="matrix(-1,0,0,1,765.10986,0)"><circle
                             style="fill:#000000;stroke:none;stroke-width:8.43262;stroke-linejoin:bevel;stroke-dashoffset:3.77953"
                             id="circle6"
                             cx="382.55493"
                             cy="460.60614"
                             r="22.347597" /><circle
                             style="fill:#ffffff;stroke:none;stroke-width:11.6354;stroke-linejoin:bevel;stroke-dashoffset:3.77953"
                             id="circle7"
                             cx="389.7431"
                             cy="450.96573"
                             r="9.8220472" /><path
                             id="path7"
                             style="opacity:0.464;fill:#ffffff;stroke-width:6.06534;stroke-linejoin:bevel;stroke-dashoffset:3.77953"
                             d="m 375.99714,470.56401 c 8.00909,4.52963 12.22266,-0.0307 12.45099,-0.0668 6.73594,-1.0659 9.73405,-2.6949 7.58231,4.4435 -0.36091,1.19732 -1.48015,3.04587 -6.35249,5.002 -4.21033,1.69035 -10.48255,1.83551 -13.15692,0.72699 -3.86952,-1.6039 -9.29005,-5.56302 -9.91024,-7.53304 -3.52115,-11.18491 5.53108,-4.75302 9.38635,-2.57263 z"
                             sodipodi:nodetypes="sssssss" /><ellipse
                             style="fill:#ffffff;stroke:none;stroke-width:11.8694;stroke-linejoin:bevel;stroke-dashoffset:3.77953"
                             id="circle8"
                             cx="380.15704"
                             cy="476.81665"
                             rx="5.104013"
                             ry="4.3480692" /><ellipse
                             style="fill:#ffffff;stroke:none;stroke-width:11.8694;stroke-linejoin:bevel;stroke-dashoffset:3.77953"
                             id="ellipse10"
                             cx="510.7464"
                             cy="476.81665"
                             rx="5.104013"
                             ry="4.3480692" /></g></g></g><path
                       id="path10"
                       style="fill:#e70002;stroke:#000000;stroke-width:0.955941;stroke-linejoin:bevel;stroke-dashoffset:3.77953"
                       d="m 327.54765,417.27811 c 3.24708,15.91656 -15.1202,33.69831 -27.87621,32.93868 -7.831,-0.46635 -21.14039,-23.95001 -21.06518,-37.11683 0.0963,-16.85354 2.14355,-20.37526 17.96838,-22.29185 15.82543,-1.91669 27.79304,10.88245 30.97301,26.47 z"
                       sodipodi:nodetypes="sssss" /><path
                       id="path11"
                       style="fill:#e70002;stroke:#000000;stroke-width:0.955941;stroke-linejoin:bevel;stroke-dashoffset:3.77953"
                       d="m 482.81899,414.81432 c -2.79441,15.84194 15.78937,35.76722 28.35808,36.28693 7.71601,0.31906 20.24552,-22.19206 19.83214,-35.57673 -0.52912,-17.13238 -2.64017,-20.91762 -18.30628,-24.467 -15.66671,-3.54952 -27.14728,8.24232 -29.88394,23.7568 z"
                       sodipodi:nodetypes="sssss" /><path
                       id="path14"
                       style="fill:#fde71f;stroke-width:1.33833;stroke-linejoin:bevel;stroke-dashoffset:3.77953"
                       d="m 338.30769,277.80943 c -1.58576,7.34572 -6.09206,13.60699 -13.607,13.60699 -7.51493,0 -13.60699,-6.09206 -13.60699,-13.60699 0,-7.51494 6.09215,-13.56812 13.60699,-13.607 7.99525,-0.0414 15.05452,6.90166 13.607,13.607 z"
                       sodipodi:nodetypes="sssss" /><g
                       id="g16"
                       transform="matrix(-1,-0.02596731,0,1,607.55374,-89.857986)"><path
                         id="path15"
                         style="fill:#fde71f;stroke:#000000;stroke-width:2.83087;stroke-linejoin:bevel;stroke-dasharray:none;stroke-dashoffset:3.77953"
                         d="m -28.86027,263.30093 -2.74419,-8.7389 c 66.0467,-2.67006 157.53723,85.23523 161.09175,118.86421 l -26.73762,27.6375 C 53.63953,382.58914 -12.37546,306.50702 -28.86027,263.30093 Z"
                         sodipodi:nodetypes="ccccc" /><path
                         id="path16"
                         style="stroke-width:3.09887;stroke-linejoin:bevel;stroke-dashoffset:3.77953"
                         inkscape:transform-center-x="7.9666819"
                         inkscape:transform-center-y="3.9754453"
                         d="m 22.96614,338.7227 c -5.86718,-6.19016 -46.22213,-48.96394 -54.35814,-83.9005 15.34594,-0.95084 40.36198,4.41258 40.53173,8.15389 -0.58024,29.1309 7.23106,49.97441 13.82641,75.74661 z"
                         sodipodi:nodetypes="cccc" /></g><path
                       id="path17"
                       style="fill:#fde71f;stroke-width:1.75366;stroke-linejoin:bevel;stroke-dashoffset:3.77953"
                       d="m 476.07835,289.94752 c 7.1414,6.85619 7.98265,18.03704 17.82975,18.29274 9.84709,0.2557 17.82974,-7.51966 17.82974,-17.36675 0,-9.8471 -8.02049,-17.37866 -17.82974,-18.29275 -13.73451,-1.27987 -30.23703,5.45499 -17.82975,17.36676 z"
                       sodipodi:nodetypes="sssss" /><path
                       id="path18"
                       style="stroke-width:2.83087;stroke-linejoin:bevel;stroke-dashoffset:3.77953"
                       d="m 408.84647,376.31742 c -0.0896,3.66243 -3.16365,4.05116 -5.73652,4.01592 -2.37489,-0.0326 -6.18982,-2.09961 -4.6972,-4.45647 4.32425,-0.73132 9.81821,-0.20598 10.43372,0.44055 z"
                       sodipodi:nodetypes="cscc" /><g
                       id="g20"
                       transform="translate(-139.26999,-101.2965)"><path
                         style="fill:none;fill-opacity:1;stroke:#000000;stroke-width:2.83087;stroke-linejoin:bevel;stroke-dasharray:none;stroke-dashoffset:3.77953;stroke-opacity:1"
                         d="m 504.76747,505.34705 c 8.34772,13.04587 25.85122,8.08047 39.68909,-2.4054"
                         id="path19"
                         sodipodi:nodetypes="cc" /><path
                         style="fill:none;fill-opacity:1;stroke:#000000;stroke-width:2.83087;stroke-linejoin:bevel;stroke-dasharray:none;stroke-dashoffset:3.77953;stroke-opacity:1"
                         d="m 542.75251,502.88694 c 14.0481,10.8872 34.76937,16.72316 40.77967,4.26689"
                         id="path20"
                         sodipodi:nodetypes="cc" /></g><g
                       id="g31"
                       transform="translate(-1167.3344,-22.454059)"><g
                         id="g30"><g
                           id="g29"><g
                             id="g28"><path
                               id="rect26"
                               style="fill:#fee71f;stroke:#000000;stroke-width:2.83087;stroke-linejoin:bevel;stroke-dashoffset:3.77953"
                               d="m 1389.3853,614.96707 c 7.6994,-11.79396 7.4164,-6.38597 12.344,-6.93181 7.3526,-22.38096 80.9007,66.86709 73.1737,66.82603 2.7478,25.63627 -14.2101,22.12527 -13.6135,21.63151 -9.5529,8.0291 -77.2541,-68.24781 -71.9042,-81.52573 z"
                               sodipodi:nodetypes="ccccc" /><path
                               style="fill:none;fill-opacity:1;stroke:#000000;stroke-width:2.83087;stroke-linejoin:bevel;stroke-dasharray:none;stroke-dashoffset:3.77953;stroke-opacity:1"
                               d="m 1393.5328,610.03599 c 0.8508,10.21594 13.6188,25.18239 18.2982,29.92424"
                               id="path26"
                               sodipodi:nodetypes="cc" /><path
                               style="fill:none;fill-opacity:1;stroke:#000000;stroke-width:2.83087;stroke-linejoin:bevel;stroke-dasharray:none;stroke-dashoffset:3.77953;stroke-opacity:1"
                               d="m 1401.5459,607.89785 c 0.8508,10.21594 13.6188,25.18239 18.2982,29.92424"
                               id="path27"
                               sodipodi:nodetypes="cc" /><path
                               id="rect27"
                               style="stroke-width:2.83087;stroke-linejoin:bevel;stroke-dashoffset:3.77953"
                               d="m 1460.3784,695.40289 c 0.7814,-0.0271 1.5319,-0.20516 2.5011,0.0749 l -0.096,0.80181 c -0.3469,3.23919 -1.5676,0.17908 -2.3887,0 z"
                               sodipodi:nodetypes="ccccc" /><path
                               id="rect28"
                               style="stroke-width:2.83087;stroke-linejoin:bevel;stroke-dashoffset:3.77953"
                               d="m 1474.0391,673.86328 c -0.09,-0.73958 0.6797,-1.11068 0.9336,-0.3711 l -0.6641,0.98048 h -0.2461 z"
                               sodipodi:nodetypes="ccccc" /></g></g></g></g><g
                       id="g38"
                       transform="matrix(-1,-0.03360948,0,1,1989.7841,24.688)"><g
                         id="g37"><g
                           id="g36"><g
                             id="g35"><path
                               id="path31"
                               style="fill:#fee71f;stroke:#000000;stroke-width:2.83087;stroke-linejoin:bevel;stroke-dashoffset:3.77953"
                               d="m 1389.3853,614.96707 c 7.6994,-11.79396 7.4164,-6.38597 12.344,-6.93181 7.3526,-22.38096 80.9007,66.86709 73.1737,66.82603 2.7478,25.63627 -14.2101,22.12527 -13.6135,21.63151 -9.5529,8.0291 -77.2541,-68.24781 -71.9042,-81.52573 z"
                               sodipodi:nodetypes="ccccc" /><path
                               style="fill:none;fill-opacity:1;stroke:#000000;stroke-width:2.83087;stroke-linejoin:bevel;stroke-dasharray:none;stroke-dashoffset:3.77953;stroke-opacity:1"
                               d="m 1393.5328,610.03599 c 0.8508,10.21594 13.6188,25.18239 18.2982,29.92424"
                               id="path32"
                               sodipodi:nodetypes="cc" /><path
                               style="fill:none;fill-opacity:1;stroke:#000000;stroke-width:2.83087;stroke-linejoin:bevel;stroke-dasharray:none;stroke-dashoffset:3.77953;stroke-opacity:1"
                               d="m 1401.5459,607.89785 c 0.8508,10.21594 13.6188,25.18239 18.2982,29.92424"
                               id="path33"
                               sodipodi:nodetypes="cc" /><path
                               id="path34"
                               style="stroke-width:2.83087;stroke-linejoin:bevel;stroke-dashoffset:3.77953"
                               d="m 1460.3784,695.40289 c 0.7814,-0.0271 1.5319,-0.20516 2.5011,0.0749 l -0.096,0.80181 c -0.3469,3.23919 -1.5676,0.17908 -2.3887,0 z"
                               sodipodi:nodetypes="ccccc" /><path
                               id="path35"
                               style="stroke-width:2.83087;stroke-linejoin:bevel;stroke-dashoffset:3.77953"
                               d="m 1474.0391,673.86328 c -0.09,-0.73958 0.6797,-1.11068 0.9336,-0.3711 l -0.6641,0.98048 h -0.2461 z"
                               sodipodi:nodetypes="ccccc" /></g></g></g></g></g><g
                     id="g118"
                     transform="matrix(-1,0.01388917,0,1,2072.3476,-15.182199)"><g
                       id="g117"><g
                         id="g91"><g
                           id="g67"><g
                             id="g66"><g
                               id="g56"><g
                                 id="g46"><g
                                   id="g45"><g
                                   id="g44"><g
                                   id="g43"><path
                                   id="rect38"
                                   style="fill:#fee71f;stroke:#000000;stroke-width:2.83087;stroke-linejoin:bevel;stroke-dashoffset:3.77953"
                                   d="m 929.75002,205.5 86.75428,-47.43934 c 17.0073,43.55123 12.6664,89.08633 8.3085,127.73654 L 977.12502,297.25 c -30.8094,-31.65603 -44.5337,-62.09169 -47.375,-91.75 z"
                                   sodipodi:nodetypes="ccccc" /><path
                                   id="path38"
                                   style="fill:#fee71f;stroke:#000000;stroke-width:2.83087;stroke-linejoin:bevel;stroke-dashoffset:3.77953"
                                   inkscape:transform-center-x="-0.81884983"
                                   inkscape:transform-center-y="-0.050460524"
                                   d="m 977.12499,305.93749 c 0.2079,-2.2618 -0.359,-5.33195 -0.8758,-9.60675 l 10.0008,6.5885 z"
                                   sodipodi:nodetypes="cccc" /><path
                                   id="path39"
                                   style="fill:#fee71f;stroke:#000000;stroke-width:2.83087;stroke-linejoin:bevel;stroke-dashoffset:3.77953"
                                   inkscape:transform-center-x="-0.53354983"
                                   inkscape:transform-center-y="0.94121948"
                                   d="m 999.50289,300.2902 c -0.796,1.74826 -3.4162,3.04237 -7.713,7.54225 -6.4973,-6.31452 -5.0073,-6.24697 -5.4109,-10.48524 z"
                                   sodipodi:nodetypes="cccc" /><path
                                   id="path40"
                                   style="fill:#fee71f;stroke:#000000;stroke-width:2.83087;stroke-linejoin:bevel;stroke-dashoffset:3.77953"
                                   inkscape:transform-center-x="-0.53354983"
                                   inkscape:transform-center-y="0.94121948"
                                   d="m 1009.2841,297.7902 c -0.8842,2.06574 -1.5623,6.84347 -4.838,7.66725 -2.8242,-0.28686 -5.00731,-4.77822 -5.41091,-9.01649 z"
                                   sodipodi:nodetypes="cccc" /><path
                                   id="path41"
                                   style="fill:#fee71f;stroke:#000000;stroke-width:2.83087;stroke-linejoin:bevel;stroke-dashoffset:3.77953"
                                   inkscape:transform-center-x="-0.53354983"
                                   inkscape:transform-center-y="0.94121948"
                                   d="m 1019.6697,295.93404 c -2.5085,1.56534 -1.9708,4.08824 -3.2913,5.41335 -10.8845,-3.19751 -7.8735,-7.09549 -7.0239,-11.04942 z"
                                   sodipodi:nodetypes="cccc" /><path
                                   id="path42"
                                   style="fill:#fee71f;stroke:#000000;stroke-width:2.83087;stroke-linejoin:bevel;stroke-dashoffset:3.77953"
                                   inkscape:transform-center-x="-0.53354983"
                                   inkscape:transform-center-y="0.94121948"
                                   d="m 1024.6853,285.51217 c -2.5085,1.56534 0.4667,9.19761 -0.8538,10.52272 -10.9508,0.51655 -7.7953,-3.72049 -6.9457,-7.67442 z"
                                   sodipodi:nodetypes="cccc" /><path
                                   id="rect42"
                                   style="fill:#fee71f;stroke-width:0.868625;stroke-linejoin:bevel;stroke-dashoffset:3.77953"
                                   d="m 979.14342,283.85984 38.98628,-10.9209 c 1.5452,4.97003 8.5129,7.69799 3.9631,15.59816 l -41.16433,9.337 c -11.61718,-6.43907 -1.44829,-9.38428 -1.78505,-14.01426 z"
                                   sodipodi:nodetypes="ccccc" /></g><path
                                   id="rect43"
                                   style="fill:#fee71f;stroke-width:0.511583;stroke-linejoin:bevel;stroke-dashoffset:3.77953"
                                   transform="matrix(0.9498551,-0.3126904,0.26054492,0.96546173,0,0)"
                                   d="m 871.67145,576.94336 h 39.24074 v 16.0557 l -39.59014,2.60931 c -8.79836,0.52166 0.0399,-12.55714 0.3494,-18.66501 z"
                                   sodipodi:nodetypes="ccccc" /></g><path
                                   id="rect45"
                                   style="fill:#fee71f;stroke-width:0.56315;stroke-linejoin:bevel;stroke-dashoffset:3.77953"
                                   d="M 1009.75,279.0625 H 1020 l -1.4651,15.14575 c -10.7837,-1.91646 -5.8566,-3.38883 -8.7849,-5.08325 z"
                                   sodipodi:nodetypes="ccccc" /></g><path
                                   id="rect46"
                                   style="fill:#fee71f;stroke-width:0.56315;stroke-linejoin:bevel;stroke-dashoffset:3.77953"
                                   d="m 1003.2188,288.59375 h 10.9688 l 4.331,2.98082 c -0.1579,8.97935 -9.7527,5.27216 -17.156,4.06586 z"
                                   sodipodi:nodetypes="ccccc" /></g><rect
                                 style="fill:#fee71f;fill-opacity:1;stroke:none;stroke-width:0.572695;stroke-linejoin:bevel;stroke-dasharray:none;stroke-dashoffset:3.77953;stroke-opacity:1"
                                 id="rect47"
                                 width="3.0131178"
                                 height="3.1109185"
                                 x="1024.5219"
                                 y="-293.48083"
                                 transform="matrix(0.84638274,0.53257513,-0.50674405,0.86209655,0,0)" /></g><rect
                               style="fill:#000000;fill-opacity:1;stroke:none;stroke-width:0.56315;stroke-linejoin:bevel;stroke-dasharray:none;stroke-dashoffset:3.77953;stroke-opacity:1"
                               id="rect56"
                               width="1.953125"
                               height="3.2734375"
                               x="1054.546"
                               y="-136.76358"
                               transform="rotate(22.945084)" /></g></g><rect
                           style="fill:#fee71f;fill-opacity:1;stroke:none;stroke-width:0.56315;stroke-linejoin:bevel;stroke-dasharray:none;stroke-dashoffset:3.77953;stroke-opacity:1"
                           id="rect67"
                           width="12.3125"
                           height="7.96875"
                           x="1036.2028"
                           y="-75.478294"
                           transform="rotate(20.31071)" /></g><rect
                         style="fill:#fee71f;fill-opacity:1;stroke:none;stroke-width:0.56315;stroke-linejoin:bevel;stroke-dasharray:none;stroke-dashoffset:3.77953;stroke-opacity:1"
                         id="rect91"
                         width="15.78125"
                         height="7.03125"
                         x="585.1308"
                         y="851.23511"
                         transform="rotate(-38.687104)" /></g><rect
                       style="fill:#fee71f;fill-opacity:1;stroke:none;stroke-width:0.56315;stroke-linejoin:bevel;stroke-dasharray:none;stroke-dashoffset:3.77953;stroke-opacity:1"
                       id="rect117"
                       width="4.9055533"
                       height="3.2482717"
                       x="615.06384"
                       y="847.16486"
                       transform="rotate(-37.549577)" /></g><g
                     id="g134"
                     transform="translate(-24,0.33334009)"><g
                       id="g131"
                       transform="translate(-3.3776513e-5)"><g
                         id="g130"><g
                           id="g129"><g
                             id="g128"><g
                               id="g127"><g
                                 id="g126"><g
                                   id="g125"><g
                                   id="g124"><path
                                   id="path118"
                                   style="fill:#fee71f;stroke:#000000;stroke-width:2.83087;stroke-linejoin:bevel;stroke-dashoffset:3.77953"
                                   d="m 929.75002,205.5 86.75428,-47.43934 c 17.0073,43.55123 12.6664,89.08633 8.3085,127.73654 L 977.12502,297.25 c -30.8094,-31.65603 -44.5337,-62.09169 -47.375,-91.75 z"
                                   sodipodi:nodetypes="ccccc" /><path
                                   id="path119"
                                   style="fill:#fee71f;stroke:#000000;stroke-width:2.83087;stroke-linejoin:bevel;stroke-dashoffset:3.77953"
                                   inkscape:transform-center-x="-0.81884983"
                                   inkscape:transform-center-y="-0.050460524"
                                   d="m 977.12499,305.93749 c 0.2079,-2.2618 -0.359,-5.33195 -0.8758,-9.60675 l 10.0008,6.5885 z"
                                   sodipodi:nodetypes="cccc" /><path
                                   id="path120"
                                   style="fill:#fee71f;stroke:#000000;stroke-width:2.83087;stroke-linejoin:bevel;stroke-dashoffset:3.77953"
                                   inkscape:transform-center-x="-0.53354983"
                                   inkscape:transform-center-y="0.94121948"
                                   d="m 999.50289,300.2902 c -0.796,1.74826 -3.4162,3.04237 -7.713,7.54225 -6.4973,-6.31452 -5.0073,-6.24697 -5.4109,-10.48524 z"
                                   sodipodi:nodetypes="cccc" /><path
                                   id="path121"
                                   style="fill:#fee71f;stroke:#000000;stroke-width:2.83087;stroke-linejoin:bevel;stroke-dashoffset:3.77953"
                                   inkscape:transform-center-x="-0.53354983"
                                   inkscape:transform-center-y="0.94121948"
                                   d="m 1009.2841,297.7902 c -0.8842,2.06574 -1.5623,6.84347 -4.838,7.66725 -2.8242,-0.28686 -5.00731,-4.77822 -5.41091,-9.01649 z"
                                   sodipodi:nodetypes="cccc" /><path
                                   id="path122"
                                   style="fill:#fee71f;stroke:#000000;stroke-width:2.83087;stroke-linejoin:bevel;stroke-dashoffset:3.77953"
                                   inkscape:transform-center-x="-0.53354983"
                                   inkscape:transform-center-y="0.94121948"
                                   d="m 1019.6697,295.93404 c -2.5085,1.56534 -1.9708,4.08824 -3.2913,5.41335 -10.8845,-3.19751 -7.8735,-7.09549 -7.0239,-11.04942 z"
                                   sodipodi:nodetypes="cccc" /><path
                                   id="path123"
                                   style="fill:#fee71f;stroke:#000000;stroke-width:2.83087;stroke-linejoin:bevel;stroke-dashoffset:3.77953"
                                   inkscape:transform-center-x="-0.53354983"
                                   inkscape:transform-center-y="0.94121948"
                                   d="m 1024.6853,285.51217 c -2.5085,1.56534 0.4667,9.19761 -0.8538,10.52272 -10.9508,0.51655 -7.7953,-3.72049 -6.9457,-7.67442 z"
                                   sodipodi:nodetypes="cccc" /><path
                                   id="path124"
                                   style="fill:#fee71f;stroke-width:0.868625;stroke-linejoin:bevel;stroke-dashoffset:3.77953"
                                   d="m 979.14342,283.85984 38.98628,-10.9209 c 1.5452,4.97003 8.5129,7.69799 3.9631,15.59816 l -41.16433,9.337 c -11.61718,-6.43907 -1.44829,-9.38428 -1.78505,-14.01426 z"
                                   sodipodi:nodetypes="ccccc" /></g><path
                                   id="path125"
                                   style="fill:#fee71f;stroke-width:0.511583;stroke-linejoin:bevel;stroke-dashoffset:3.77953"
                                   transform="matrix(0.9498551,-0.3126904,0.26054492,0.96546173,0,0)"
                                   d="m 871.67145,576.94336 h 39.24074 v 16.0557 l -39.59014,2.60931 c -8.79836,0.52166 0.0399,-12.55714 0.3494,-18.66501 z"
                                   sodipodi:nodetypes="ccccc" /></g><path
                                   id="path126"
                                   style="fill:#fee71f;stroke-width:0.56315;stroke-linejoin:bevel;stroke-dashoffset:3.77953"
                                   d="M 1009.75,279.0625 H 1020 l -1.4651,15.14575 c -10.7837,-1.91646 -5.8566,-3.38883 -8.7849,-5.08325 z"
                                   sodipodi:nodetypes="ccccc" /></g><path
                                 id="path127"
                                 style="fill:#fee71f;stroke-width:0.56315;stroke-linejoin:bevel;stroke-dashoffset:3.77953"
                                 d="m 1003.2188,288.59375 h 10.9688 l 4.331,2.98082 c -0.1579,8.97935 -9.7527,5.27216 -17.156,4.06586 z"
                                 sodipodi:nodetypes="ccccc" /></g><rect
                               style="fill:#fee71f;fill-opacity:1;stroke:none;stroke-width:0.572695;stroke-linejoin:bevel;stroke-dasharray:none;stroke-dashoffset:3.77953;stroke-opacity:1"
                               id="rect127"
                               width="3.0131178"
                               height="3.1109185"
                               x="1024.5219"
                               y="-293.48083"
                               transform="matrix(0.84638274,0.53257513,-0.50674405,0.86209655,0,0)" /></g><rect
                             style="fill:#000000;fill-opacity:1;stroke:none;stroke-width:0.56315;stroke-linejoin:bevel;stroke-dasharray:none;stroke-dashoffset:3.77953;stroke-opacity:1"
                             id="rect128"
                             width="1.953125"
                             height="3.2734375"
                             x="1054.546"
                             y="-136.76358"
                             transform="rotate(22.945084)" /></g></g><rect
                         style="fill:#fee71f;fill-opacity:1;stroke:none;stroke-width:0.56315;stroke-linejoin:bevel;stroke-dasharray:none;stroke-dashoffset:3.77953;stroke-opacity:1"
                         id="rect130"
                         width="12.3125"
                         height="7.96875"
                         x="1036.2028"
                         y="-75.478294"
                         transform="rotate(20.31071)" /></g><rect
                       style="fill:#fee71f;fill-opacity:1;stroke:none;stroke-width:0.56315;stroke-linejoin:bevel;stroke-dasharray:none;stroke-dashoffset:3.77953;stroke-opacity:1"
                       id="rect131"
                       width="15.78125"
                       height="7.03125"
                       x="585.1308"
                       y="851.23511"
                       transform="rotate(-38.687104,-1.8840231e-5,4.7422792e-5)" /><rect
                       style="fill:#fee71f;fill-opacity:1;stroke:none;stroke-width:0.56315;stroke-linejoin:bevel;stroke-dasharray:none;stroke-dashoffset:3.77953;stroke-opacity:1"
                       id="rect132"
                       width="4.9055533"
                       height="3.2482717"
                       x="615.06384"
                       y="847.16486"
                       transform="rotate(-37.549577)" /></g><path
                     id="rect134"
                     style="fill:#fee71f;stroke-width:0.599296;stroke-linejoin:bevel;stroke-dashoffset:3.77953"
                     transform="matrix(-0.90170438,-0.43235311,-0.52696502,0.84988697,0,0)"
                     d="m -1083.3862,-321.17935 98.11756,-1.18845 -9.49696,29.84026 -88.6206,-1.14039 z"
                     sodipodi:nodetypes="ccccc" /><path
                     id="path134"
                     style="fill:#fee71f;stroke-width:0.59755;stroke-linejoin:bevel;stroke-dashoffset:3.77953"
                     d="m 916.34094,223.66722 76.75923,-54.99465 -3.37916,-21.19222 -86.20595,52.21961 z"
                     sodipodi:nodetypes="ccccc" /></g></g></g></g></g></g></g></g></svg>
